<?xml version="1.0"?>
<svg width="1024" height="1024" xmlns="http://www.w3.org/2000/svg" xmlns:svg="http://www.w3.org/2000/svg" xmlns:xlink="http://www.w3.org/1999/xlink">
 <defs>
  <filter color-interpolation-filters="sRGB" id="filter8114">
   <feGaussianBlur id="feGaussianBlur8116" stdDeviation="1.01"/>
  </filter>
  <filter color-interpolation-filters="sRGB" id="filter8074">
   <feGaussianBlur id="feGaussianBlur8076" stdDeviation="2.03"/>
  </filter>
  <filter color-interpolation-filters="sRGB" height="1.28" id="filter7233" width="1.15" x="-0.07" y="-0.14">
   <feGaussianBlur id="feGaussianBlur7235" stdDeviation="6.46"/>
  </filter>
  <mask id="mask7947" maskUnits="userSpaceOnUse">
   <path d="m205,135l-45,10l-100,55l40,-5l0,100l105,-50l105,50.38l0,-100.38l35,0l-105,-50.38l-35,-9.62l0,0z" fill="#ffffff" id="path7949"/>
  </mask>
  <filter color-interpolation-filters="sRGB" id="filter7251">
   <feGaussianBlur id="feGaussianBlur7253" stdDeviation="2.25"/>
  </filter>
  <filter color-interpolation-filters="sRGB" id="filter3503">
   <feGaussianBlur id="feGaussianBlur3505" stdDeviation="2.63"/>
  </filter>
  <filter color-interpolation-filters="sRGB" id="filter3361">
   <feGaussianBlur id="feGaussianBlur3363" stdDeviation="1.87"/>
  </filter>
  <filter color-interpolation-filters="sRGB" id="filter6169">
   <feGaussianBlur id="feGaussianBlur6171" stdDeviation="3.01"/>
  </filter>
  <filter color-interpolation-filters="sRGB" height="1.48" id="filter14465" width="1.25" x="-0.13" y="-0.24">
   <feGaussianBlur id="feGaussianBlur14467" stdDeviation="3.23"/>
  </filter>
  <mask id="mask14451" maskUnits="userSpaceOnUse">
   <path d="m204,250l3,37l66,-19l-69,-18z" fill="url(#linearGradient14455) #000000" filter="url(#filter14443)" id="path14453"/>
  </mask>
  <filter color-interpolation-filters="sRGB" height="1.85" id="filter14443" width="1.23" x="-0.12" y="-0.42">
   <feGaussianBlur id="feGaussianBlur14445" stdDeviation="3.36"/>
  </filter>
  <mask id="mask8359" maskUnits="userSpaceOnUse">
   <path d="m100,847.36l0,96.87c0.45,4.06 0.8,3.65 3.28,5l95.36,54.5c3.78,1.98 7.79,2.83 12.51,0.14l92.29,-52.41c6.33,-3.54 6.68,-6.78 6.56,-10l0,-94.1l-105,50l-105,-50l0,0z" fill="#ffffff" id="path8361"/>
  </mask>
  <filter color-interpolation-filters="sRGB" id="filter7300">
   <feGaussianBlur id="feGaussianBlur7302" stdDeviation="1.71"/>
  </filter>
  <filter color-interpolation-filters="sRGB" id="filter8178">
   <feGaussianBlur id="feGaussianBlur8180" stdDeviation="3.63"/>
  </filter>
  <mask id="mask8351" maskUnits="userSpaceOnUse">
   <path d="m100,195l0,96.88c0.45,4.05 0.8,3.64 3.28,5l95.36,54.49c3.78,1.98 7.79,2.83 12.51,0.14l92.29,-52.41c6.33,-3.54 6.68,-6.78 6.56,-10l0,-94.1l-105,50l-105,-50l0,0z" fill="#ffffff" id="path8353"/>
  </mask>
  <filter color-interpolation-filters="sRGB" id="filter7863">
   <feGaussianBlur id="feGaussianBlur7865" stdDeviation="0.95"/>
  </filter>
  <mask id="mask7935" maskUnits="userSpaceOnUse">
   <path d="m255,294.62l-50,-49.62l105,-50l50,40l-105,59.62l0,0z" fill="#ffffff" id="path7937"/>
  </mask>
  <filter color-interpolation-filters="sRGB" id="filter7881">
   <feGaussianBlur id="feGaussianBlur7883" stdDeviation="1.36"/>
  </filter>
  <mask id="mask7941" maskUnits="userSpaceOnUse">
   <path d="m160,300l45,-55l-105,-50l-45,45l105,60z" fill="#ffffff" id="path7943"/>
  </mask>
  <radialGradient cx="257.5" cy="165" gradientTransform="matrix(1 0 0 .58716 0 68.119)" gradientUnits="userSpaceOnUse" id="radialGradient7500" r="54.5" xlink:href="#linearGradient14419"/>
  <linearGradient id="linearGradient14419">
   <stop id="stop14421" offset="0" stop-color="rgb(255, 255, 255)"/>
   <stop id="stop14423" offset="1" stop-color="rgb(255, 255, 255)" stop-opacity="0"/>
  </linearGradient>
  <linearGradient id="linearGradient7502" spreadMethod="repeat" x1="0" x2="0" xlink:href="#linearGradient8046" y1="0.94" y2="0.99"/>
  <linearGradient id="linearGradient8046">
   <stop id="stop8048" offset="0" stop-color="rgb(210, 183, 123)"/>
   <stop id="stop8050" offset="0.5" stop-color="rgb(206, 180, 118)"/>
   <stop id="stop8052" offset="1" stop-color="rgb(146, 107, 50)"/>
  </linearGradient>
  <radialGradient cx="116.36" cy="160.08" gradientTransform="matrix(0.6177300214767456,-0.3828001022338867,0.09216000139713287,0.14871996641159058,-142.87870407104492,818.4527587890625)" gradientUnits="userSpaceOnUse" id="radialGradient7504" r="75" xlink:href="#linearGradient14419"/>
  <radialGradient cx="152.5" cy="165" gradientTransform="matrix(1 0 0 .57143 0 70.714)" gradientUnits="userSpaceOnUse" id="radialGradient7506" r="52.5" xlink:href="#linearGradient14419"/>
  <linearGradient id="linearGradient7508" spreadMethod="repeat" x1="0.9" x2="0.9" xlink:href="#linearGradient8046" y1="0.99" y2="0.95"/>
  <linearGradient id="linearGradient7510" x1="0.62" x2="0.35" xlink:href="#linearGradient8046" y1="0.44" y2="-0.08"/>
  <radialGradient cx="259.51" cy="112.05" gradientTransform="matrix(0.6701800227165222,0.30379000306129456,-0.02863600291311741,0.06317199766635895,-114.71770477294922,709.7847290039062)" gradientUnits="userSpaceOnUse" id="radialGradient7512" r="77.5" xlink:href="#linearGradient7771"/>
  <linearGradient id="linearGradient7771">
   <stop id="stop7773" offset="0" stop-color="rgb(255, 255, 255)"/>
   <stop id="stop7775" offset="1" stop-color="rgb(255, 239, 133)" stop-opacity="0"/>
  </linearGradient>
  <radialGradient cx="116.36" cy="160.08" gradientTransform="matrix(0.629360020160675,-0.3633599877357483,0.024588005617260933,0.042588010430336,-133.41570281982422,833.1827392578125)" gradientUnits="userSpaceOnUse" id="radialGradient7514" r="75" xlink:href="#linearGradient7771"/>
  <radialGradient cx="207.26" cy="183.8" gradientTransform="matrix(1.9184000492095947,0,0,1.0048999786376953,-599.5794219970703,1255.20263671875)" gradientUnits="userSpaceOnUse" id="radialGradient7516" r="105" xlink:href="#linearGradient6170"/>
  <linearGradient id="linearGradient6170">
   <stop id="stop6172" offset="0" stop-color="rgb(254, 253, 252)"/>
   <stop id="stop6174" offset="1" stop-color="rgb(219, 169, 50)"/>
  </linearGradient>
  <linearGradient id="linearGradient7520" x1="0.53" x2="1.04" xlink:href="#linearGradient4839" y1="1.18" y2="1.06"/>
  <linearGradient id="linearGradient4839">
   <stop id="stop4841" offset="0" stop-color="rgb(248, 248, 248)"/>
   <stop id="stop4843" offset="1" stop-color="rgb(196, 196, 196)"/>
  </linearGradient>
  <linearGradient id="linearGradient7522" x1="0.59" x2="0.3" xlink:href="#linearGradient4839" y1="0.39" y2="0.45"/>
  <linearGradient id="linearGradient7524" x1="0.72" x2="0.14" xlink:href="#linearGradient4802" y1="0.4" y2="0.52"/>
  <linearGradient id="linearGradient4802">
   <stop id="stop4806" offset="0" stop-color="rgb(242, 242, 242)"/>
   <stop id="stop4808" offset="1" stop-color="rgb(166, 166, 166)"/>
  </linearGradient>
  <linearGradient id="linearGradient7526" x1="0.29" x2="0.85" xlink:href="#linearGradient4748" y1="0.79" y2="0.61"/>
  <linearGradient id="linearGradient4748">
   <stop id="stop4750" offset="0" stop-color="rgb(248, 248, 248)"/>
   <stop id="stop4798" offset="0.83" stop-color="rgb(196, 196, 196)"/>
   <stop id="stop4752" offset="1" stop-color="rgb(155, 155, 155)"/>
  </linearGradient>
  <linearGradient id="linearGradient7528" x1="0.68" x2="-0.49" xlink:href="#linearGradient4839" y1="0.45" y2="0.67"/>
  <linearGradient id="linearGradient7540" x1="0.53" x2="0.69" y1="0.46" y2="0.83">
   <stop id="stop3369" offset="0" stop-color="rgb(255, 127, 0)"/>
   <stop id="stop3371" offset="1" stop-color="rgb(230, 69, 0)"/>
  </linearGradient>
  <linearGradient id="linearGradient7542" x1="0.42" x2="0.59" y1="0.58" y2="0.99">
   <stop id="stop3459" offset="0" stop-color="rgb(255, 255, 255)" stop-opacity="0"/>
   <stop id="stop3461" offset="1" stop-color="rgb(255, 0, 0)"/>
  </linearGradient>
  <linearGradient id="linearGradient7544" x1="-1.64" x2="-0.69" xlink:href="#linearGradient3275" y1="-0.86" y2="1.68"/>
  <linearGradient id="linearGradient3275">
   <stop id="stop3277" offset="0" stop-color="rgb(255, 255, 255)"/>
   <stop id="stop3279" offset="1" stop-color="rgb(195, 195, 195)"/>
  </linearGradient>
  <linearGradient id="linearGradient7546" x1="-0.19" x2="0.37" xlink:href="#linearGradient3275" y1="0.21" y2="0.98"/>
  <linearGradient id="linearGradient7550" x1="0.38" x2="0.58" y1="0.31" y2="0.91">
   <stop id="stop3429" offset="0" stop-color="rgb(255, 255, 255)"/>
   <stop id="stop3431" offset="1" stop-color="rgb(255, 255, 255)" stop-opacity="0"/>
  </linearGradient>
  <radialGradient cx="289.43" cy="209.67" gradientTransform="matrix(0.379040002822876,-0.379040002822876,0.8549799919128418,0.8549799919128418,1259.0654602050781,2093.30078125)" gradientUnits="userSpaceOnUse" id="radialGradient7552" r="92.5" xlink:href="#linearGradient14419"/>
  <radialGradient cx="289.43" cy="209.67" gradientTransform="matrix(-0.379040002822876,0.379040002822876,-0.8549799919128418,-0.8549799919128418,1678.8653869628906,2074.240966796875)" gradientUnits="userSpaceOnUse" id="radialGradient7554" r="92.5" xlink:href="#linearGradient14419"/>
  <radialGradient cx="199.28" cy="192.84" gradientTransform="matrix(0,1.2109999656677246,-0.35911011695861816,0,1538.1654357910156,1842.447998046875)" gradientUnits="userSpaceOnUse" id="radialGradient7556" r="68.84">
   <stop id="stop3275" offset="0" stop-color="rgb(108, 108, 108)"/>
   <stop id="stop3277-2" offset="1" stop-color="rgb(62, 62, 62)"/>
  </radialGradient>
  <radialGradient cx="199.28" cy="192.84" gradientTransform="matrix(0,1.2522000074386597,-0.43588000535964966,0,1552.9653625488281,1834.23095703125)" gradientUnits="userSpaceOnUse" id="radialGradient7558" r="53.69">
   <stop id="stop3265" offset="0" stop-color="rgb(247, 247, 247)"/>
   <stop id="stop3267" offset="1" stop-color="rgb(225, 225, 225)"/>
  </radialGradient>
  <radialGradient cx="195.54" cy="293.53" gradientTransform="matrix(1.7067999839782715,0,0,2.482599973678589,-302.41170501708984,206.79269409179688)" gradientUnits="userSpaceOnUse" id="radialGradient7560" r="55" xlink:href="#linearGradient6117"/>
  <linearGradient id="linearGradient6117">
   <stop id="stop6119" offset="0" stop-color="rgb(237, 226, 202)"/>
   <stop id="stop6139" offset="0.5" stop-color="rgb(206, 180, 118)"/>
   <stop id="stop6121" offset="1" stop-color="rgb(146, 107, 50)"/>
  </linearGradient>
  <radialGradient cx="177.48" cy="292.05" gradientTransform="matrix(1.7067999839782715,0,0,2.482599973678589,-302.41170501708984,859.1527099609375)" gradientUnits="userSpaceOnUse" id="radialGradient7564" r="55" xlink:href="#linearGradient6170"/>
  <linearGradient id="linearGradient7566" x1="0.28" x2="0.09" xlink:href="#linearGradient14419" y1="0.85" y2="-0.01"/>
  <linearGradient id="linearGradient7568" x1="-0.04" x2="1.04" y1="0.5" y2="0.5">
   <stop id="stop8190" offset="0" stop-color="rgb(0, 0, 0)" stop-opacity="0.75"/>
   <stop id="stop8192" offset="1" stop-color="rgb(255, 255, 255)"/>
  </linearGradient>
  <radialGradient cx="148.11" cy="254.41" gradientTransform="matrix(1.7546000480651855,0.47016000747680664,-0.3291100859642029,1.2281999588012695,-221.143705368042,511.3827209472656)" gradientUnits="userSpaceOnUse" id="radialGradient7570" r="75" xlink:href="#linearGradient6117"/>
  <linearGradient id="linearGradient7572" x1="0.76" x2="-1.45" xlink:href="#linearGradient6117" y1="0.73" y2="-1"/>
  <radialGradient cx="257.5" cy="220" gradientTransform="matrix(1.9368 0 0 1.4626 -241.23 -101.78)" gradientUnits="userSpaceOnUse" id="radialGradient7574" r="55.13" xlink:href="#linearGradient7771"/>
  <radialGradient cx="152.5" cy="220" gradientTransform="matrix(2.0585 0 0 1.5293 -161.42 -116.44)" gradientUnits="userSpaceOnUse" id="radialGradient7576" r="52.5" xlink:href="#linearGradient7771"/>
  <radialGradient cx="138.82" cy="224.37" gradientTransform="matrix(1.0342999696731567,0.2771500051021576,-0.1939999908208847,0.7240299582481384,-145.54670333862305,649.5667114257812)" gradientUnits="userSpaceOnUse" id="radialGradient7578" r="75" xlink:href="#linearGradient7771"/>
  <radialGradient cx="251" cy="198.91" gradientTransform="matrix(1,0,0,0.6426798701286316,-204.4947052001953,716.4677124023438)" gradientUnits="userSpaceOnUse" id="radialGradient7582" r="77.5" xlink:href="#linearGradient7771"/>
  <linearGradient id="svg_1" x1="1" x2="0" xlink:href="#linearGradient8046" y1="0.5" y2="0.5"/>
  <linearGradient id="svg_2" x1="0.98" x2="0.47" y1="0.05" y2="0.83">
   <stop id="stop8146" offset="0" stop-color="rgb(0, 0, 0)"/>
   <stop id="stop8148" offset="1" stop-color="rgb(0, 0, 0)" stop-opacity="0"/>
  </linearGradient>
 </defs>
 <g class="layer">
  <title>Layer 1</title>
  <g id="svg_15">
   <g id="svg_3" transform="matrix(0.40449 0 0 0.40449 588.995 587.007)">
    <path d="m-922.39,-46.98c6.47,-6.41 15.64,-9.61 24.65,-9.83c9.95,-0.24 19.8,1.6 29.44,3.89c16.84,4.25 33.18,10.3 49.08,17.25c5.14,2.08 9.03,6.19 13.32,9.55c25.59,21.94 50.06,45.15 74.72,68.12c52.14,48.91 103.73,98.39 155.74,147.44c12.24,11.48 24.42,23.03 36.98,34.16c-17.28,3.68 -34.32,8.49 -50.99,14.33c-48.99,-45.83 -98.29,-91.34 -147.86,-136.56c-14.38,-13.04 -28.72,-26.12 -43.43,-38.79c-8.83,-7.83 -19.13,-13.7 -29.2,-19.75c-14.08,-8.15 -28.54,-15.75 -43.73,-21.62c-6.79,-2.51 -13.77,-4.74 -21.01,-5.42c-16.4,-0.47 -32.81,0.13 -49.18,1.25c-2.04,-12.47 -3.9,-24.98 -5.9,-37.46c-1.61,-9.3 0.55,-19.72 7.37,-26.56z" fill="rgb(255, 255, 255)" id="svg_4" stroke="#000000" stroke-width="3"/>
    <path d="m-809.31,-36.12c10.73,-4.67 22,-8.62 33.73,-9.63c6.01,-0.72 11.76,1.66 17.18,3.93c15.88,7.11 30.58,16.51 45.12,25.99c2.34,1.65 4.9,3.05 7,5.04c21.32,22.66 43.2,44.79 64.91,67.08c29.64,30.03 59.21,60.14 89.05,89.98c23.52,23.28 47.18,46.42 70.53,69.88c-16.72,0.29 -33.28,2.95 -49.69,5.9c-11.58,-9.49 -22.24,-20.12 -33.29,-30.24c-50.51,-47.53 -100.55,-95.55 -151.08,-143.06c-23.69,-22.3 -47.45,-44.55 -71.67,-66.28c-7.16,-6.32 -14.29,-12.68 -21.79,-18.59z" fill="rgb(255, 255, 255)" id="svg_5" stroke="#000000" stroke-width="3"/>
    <path d="m-699.5,-11.89c8.28,-0.81 16.77,-0.61 24.8,1.72c7.16,1.79 12.51,7.25 18.17,11.64c27.57,23.35 53.47,48.57 79.71,73.38c19.34,18.27 38.32,36.93 58.18,54.64c14.11,11.18 26.06,24.74 38.13,38.02c13.93,15.64 27.47,31.62 40.8,47.78c-11.54,-0.13 -23.16,0.85 -34.65,0.3c-29.37,-29.4 -59.16,-58.38 -88.52,-87.79c-39.48,-39.88 -78.97,-79.76 -118.01,-120.08c-6.21,-6.53 -12.59,-12.91 -18.61,-19.61z" fill="rgb(255, 255, 255)" id="svg_6" stroke="#000000" stroke-width="3"/>
    <path d="m-920.37,22.84c15.15,-1.4 30.39,-1.79 45.6,-1.66c9.45,-0.27 18.47,3.08 27.15,6.42c16.29,6.62 31.75,15.11 46.79,24.18c7.51,4.61 15.06,9.27 21.62,15.19c25,21.69 49.29,44.18 73.74,66.48c38.5,35.48 77.09,70.88 115.2,106.76c-14.92,5.43 -29.6,12.05 -42.59,21.27c-10.69,7.59 -18.55,19.26 -20.58,32.31c-2.64,16.16 1.53,32.49 6.81,47.69c3.24,8.7 6.06,17.77 11.68,25.3c7.98,10.86 18.29,19.79 29.14,27.68c16.43,11.83 34.35,21.55 53.09,29.18c10.93,4.34 22.19,8.13 33.86,9.83c22.29,2.29 44.71,2.99 67.08,4.14c90.34,3.72 180.72,6.14 271.1,8.54c38.63,0.94 77.25,2.01 115.88,2.78c20.17,0.77 40.37,0.59 60.52,1.61c0.02,-1.9 0.06,-3.79 0.08,-5.67c-69.95,-1.59 -139.91,-3.25 -209.87,-5.1c-90.56,-2.56 -181.15,-4.85 -271.65,-9.31c-12.34,-0.98 -24.79,-1.12 -37.01,-3.25c-15.94,-3.34 -31.11,-9.6 -45.69,-16.73c-17.44,-8.82 -34.24,-19.25 -48.76,-32.41c-7.59,-7.18 -15.02,-15.03 -19.04,-24.83c-5.74,-14.33 -11.09,-29.09 -12.41,-44.58c-0.81,-10.82 1.28,-22.2 7.65,-31.17c6.46,-9.37 16.48,-15.35 26.32,-20.61c22.09,-11.32 45.89,-18.91 69.89,-25c23.91,-5.79 48.35,-10.14 73.01,-10.38c14.01,-0.2 28.02,-0.86 42.03,-0.88c17.41,7.01 36.43,8.07 54.96,8.94c10.69,0.08 21.4,0.19 32.07,-0.53c55.53,4.15 111.36,4.43 166.9,0.25c43.46,-3.51 86.89,-9.74 128.86,-21.83c16.95,-4.95 33.65,-10.87 49.72,-18.21c50.06,-22.01 99.89,-44.66 150.98,-64.19c41.46,-15.88 84.55,-27.56 128.45,-34.3c52.16,-8.17 105.19,-11.24 157.93,-8.13c65.88,4.02 131.96,18.11 191.19,47.92c19.25,9.5 37.16,21.37 55.22,32.91c33.05,21.47 65.85,43.5 96.26,68.63c13.12,10.75 25.25,22.64 36.77,35.07c-91.38,126.91 -182.82,253.78 -274.43,380.52c-40.39,-13.42 -81.27,-25.65 -122.98,-34.28c-16.46,-3.15 -33.12,-6.09 -49.94,-5.64c-8.83,0.4 -17.35,2.99 -25.92,4.92c-43.5,10.97 -86.66,23.19 -129.85,35.26c-86.14,24.21 -172.11,49.03 -258.23,73.34c-20.91,5.82 -41.77,11.82 -62.82,17.12c-26.59,6.06 -53.86,10.8 -81.22,8.95c-15.73,-1.34 -31.8,-4.8 -45.16,-13.6c-21.56,-13.47 -42.41,-28.04 -63.3,-42.51c-62.63,-43.81 -124.47,-88.73 -185.9,-134.19c-34.02,-25.23 -67.9,-50.65 -101.45,-76.5c-27.93,-21.62 -55.89,-43.24 -82.58,-66.4c-15.31,-13.07 -28.1,-28.71 -41.26,-43.86c-38.43,-45.44 -75.4,-92.08 -111.81,-139.15c-24.86,-32.25 -49.41,-64.75 -73.18,-97.82c-15.19,-21.3 -30.37,-42.67 -43.84,-65.12c-3.9,-6.8 -8.1,-13.62 -10.08,-21.28c6.2,-9.57 14.32,-18 24,-24.07z" fill="rgb(255, 255, 255)" id="svg_7" stroke="#000000" stroke-width="3"/>
    <path d="m872.66,265.19c6.69,-3.29 14.36,-4.53 21.73,-3.29c9.08,1.25 17.12,5.87 25.5,9.25c9.73,4.14 19.76,7.52 29.65,11.25c3.36,1.45 7.11,2.66 9.58,5.54c1.86,2.88 0.31,6.32 -0.48,9.29c-2.99,8.27 -7.2,16.02 -10.89,23.97c-34.99,71.72 -71.42,142.72 -108.68,213.28c-20.57,38.85 -41.52,77.49 -63.02,115.83c-18.71,33.12 -37.73,66.08 -57.97,98.3c-11.77,18.59 -23.8,37.07 -37.22,54.52c-6.17,7.81 -12.43,15.68 -20.06,22.12c-2.56,1.96 -5.23,4.17 -8.49,4.69c-2.07,0.29 -3.09,-1.77 -4.34,-2.95c-24.23,-26.11 -48.99,-51.78 -71.62,-79.31c-8.57,-10.59 -17.05,-21.32 -24.06,-33.03c-3.13,-5.39 -6.13,-10.99 -7.4,-17.14c1.93,-2.58 3.76,-5.24 5.7,-7.81l3.5,-4.86c97.04,-134.17 193.75,-268.59 290.65,-402.86c10.32,-3.8 18.1,-12.03 27.92,-16.79z" fill="rgb(255, 255, 255)" id="svg_8" stroke="#000000" stroke-width="3" transform="matrix(1 0 0 1 0 0)"/>
   </g>
   <g id="svg_9" transform="matrix(-0.40449 0 0 -0.40449 1207.36 487.479)">
    <path d="m987.07,77.84c6.47,-6.41 15.64,-9.61 24.65,-9.83c9.95,-0.24 19.8,1.6 29.44,3.89c16.84,4.25 33.18,10.3 49.08,17.25c5.14,2.08 9.03,6.19 13.32,9.55c25.59,21.94 50.06,45.15 74.72,68.12c52.14,48.91 103.73,98.39 155.74,147.44c12.24,11.48 24.42,23.03 36.98,34.16c-17.28,3.68 -34.32,8.49 -50.99,14.33c-48.99,-45.83 -98.29,-91.34 -147.86,-136.56c-14.38,-13.04 -28.72,-26.12 -43.43,-38.79c-8.83,-7.83 -19.13,-13.7 -29.2,-19.75c-14.08,-8.15 -28.54,-15.75 -43.73,-21.62c-6.79,-2.51 -13.77,-4.74 -21.01,-5.42c-16.4,-0.47 -32.81,0.13 -49.18,1.25c-2.04,-12.47 -3.9,-24.98 -5.9,-37.46c-1.61,-9.3 0.55,-19.72 7.37,-26.56z" fill="rgb(255, 255, 255)" id="svg_10" stroke="#000000" stroke-width="3"/>
    <path d="m1100.15,88.7c10.73,-4.67 22,-8.62 33.73,-9.63c6.01,-0.72 11.76,1.66 17.18,3.93c15.88,7.11 30.58,16.51 45.12,25.99c2.34,1.65 4.9,3.05 7,5.04c21.32,22.66 43.2,44.79 64.91,67.08c29.64,30.03 59.21,60.14 89.05,89.98c23.52,23.28 47.18,46.42 70.53,69.88c-16.72,0.29 -33.28,2.95 -49.69,5.9c-11.58,-9.49 -22.24,-20.12 -33.29,-30.24c-50.51,-47.53 -100.55,-95.55 -151.08,-143.06c-23.69,-22.3 -47.45,-44.55 -71.67,-66.28c-7.16,-6.32 -14.29,-12.68 -21.79,-18.59z" fill="rgb(255, 255, 255)" id="svg_11" stroke="#000000" stroke-width="3"/>
    <path d="m1209.96,112.93c8.28,-0.81 16.77,-0.61 24.8,1.72c7.16,1.79 12.51,7.25 18.17,11.64c27.57,23.35 53.47,48.57 79.71,73.38c19.34,18.27 38.32,36.93 58.18,54.64c14.11,11.18 26.06,24.74 38.13,38.02c13.93,15.64 27.47,31.62 40.8,47.78c-11.54,-0.13 -23.16,0.85 -34.65,0.3c-29.37,-29.4 -59.16,-58.38 -88.52,-87.79c-39.48,-39.88 -78.97,-79.76 -118.01,-120.08c-6.21,-6.53 -12.59,-12.91 -18.61,-19.61z" fill="rgb(255, 255, 255)" id="svg_12" stroke="#000000" stroke-width="3"/>
    <path d="m984.09,147.66c15.15,-1.4 30.39,-1.79 45.6,-1.66c9.45,-0.27 18.47,3.08 27.15,6.42c16.29,6.62 31.75,15.11 46.79,24.18c7.51,4.61 15.06,9.27 21.62,15.19c25,21.69 49.29,44.18 73.74,66.48c38.5,35.48 77.09,70.88 115.2,106.76c-14.92,5.43 -29.6,12.05 -42.59,21.27c-10.69,7.59 -18.55,19.26 -20.58,32.31c-2.64,16.16 1.53,32.49 6.81,47.69c3.24,8.7 6.06,17.77 11.68,25.3c7.98,10.86 18.29,19.79 29.14,27.68c16.43,11.83 34.35,21.55 53.09,29.18c10.93,4.34 22.19,8.13 33.86,9.83c22.29,2.29 44.71,2.99 67.08,4.14c90.34,3.72 180.72,6.14 271.1,8.54c38.63,0.94 77.25,2.01 115.88,2.78c20.17,0.77 40.37,0.59 60.52,1.61c0.02,-1.9 0.06,-3.79 0.08,-5.67c-69.95,-1.59 -139.91,-3.25 -209.87,-5.1c-90.56,-2.56 -181.15,-4.85 -271.65,-9.31c-12.34,-0.98 -24.79,-1.12 -37.01,-3.25c-15.94,-3.34 -31.11,-9.6 -45.69,-16.73c-17.44,-8.82 -34.24,-19.25 -48.76,-32.41c-7.59,-7.18 -15.02,-15.03 -19.04,-24.83c-5.74,-14.33 -11.09,-29.09 -12.41,-44.58c-0.81,-10.82 1.28,-22.2 7.65,-31.17c6.46,-9.37 16.48,-15.35 26.32,-20.61c22.09,-11.32 45.89,-18.91 69.89,-25c23.91,-5.79 48.35,-10.14 73.01,-10.38c14.01,-0.2 28.02,-0.86 42.03,-0.88c17.41,7.01 36.43,8.07 54.96,8.94c10.69,0.08 21.4,0.19 32.07,-0.53c55.53,4.15 111.36,4.43 166.9,0.25c43.46,-3.51 86.89,-9.74 128.86,-21.83c16.95,-4.95 33.65,-10.87 49.72,-18.21c50.06,-22.01 99.89,-44.66 150.98,-64.19c41.46,-15.88 84.55,-27.56 128.45,-34.3c52.16,-8.17 105.19,-11.24 157.93,-8.13c65.88,4.02 131.96,18.11 191.19,47.92c19.25,9.5 37.16,21.37 55.22,32.91c33.05,21.47 65.85,43.5 96.26,68.63c13.12,10.75 25.25,22.64 36.77,35.07c-91.38,126.91 -182.82,253.78 -274.43,380.52c-40.39,-13.42 -81.27,-25.65 -122.98,-34.28c-16.46,-3.15 -33.12,-6.09 -49.94,-5.64c-8.83,0.4 -17.35,2.99 -25.92,4.92c-43.5,10.97 -86.66,23.19 -129.85,35.26c-86.14,24.21 -172.11,49.03 -258.23,73.34c-20.91,5.82 -41.77,11.82 -62.82,17.12c-26.59,6.06 -53.86,10.8 -81.22,8.95c-15.73,-1.34 -31.8,-4.8 -45.16,-13.6c-21.56,-13.47 -42.41,-28.04 -63.3,-42.51c-62.63,-43.81 -124.47,-88.73 -185.9,-134.19c-34.02,-25.23 -67.9,-50.65 -101.45,-76.5c-27.93,-21.62 -55.89,-43.24 -82.58,-66.4c-15.31,-13.07 -28.1,-28.71 -41.26,-43.86c-38.43,-45.44 -75.4,-92.08 -111.81,-139.15c-24.86,-32.25 -49.41,-64.75 -73.18,-97.82c-15.19,-21.3 -30.37,-42.67 -43.84,-65.12c-3.9,-6.8 -8.1,-13.62 -10.08,-21.28c6.2,-9.57 14.32,-18 24,-24.07z" fill="rgb(255, 255, 255)" id="svg_13" stroke="#000000" stroke-width="3"/>
    <path d="m2782.12,390.01c6.69,-3.29 14.36,-4.53 21.73,-3.29c9.08,1.25 17.12,5.87 25.5,9.25c9.73,4.14 19.76,7.52 29.65,11.25c3.36,1.45 7.11,2.66 9.58,5.54c1.86,2.88 0.31,6.32 -0.48,9.29c-2.99,8.27 -7.2,16.02 -10.89,23.97c-34.99,71.72 -71.42,142.72 -108.68,213.28c-20.57,38.85 -41.52,77.49 -63.02,115.83c-18.71,33.12 -37.73,66.08 -57.97,98.3c-11.77,18.59 -23.8,37.07 -37.22,54.52c-6.17,7.81 -12.43,15.68 -20.06,22.12c-2.56,1.96 -5.23,4.17 -8.49,4.69c-2.07,0.29 -3.09,-1.77 -4.34,-2.95c-24.23,-26.11 -48.99,-51.78 -71.62,-79.31c-8.57,-10.59 -17.05,-21.32 -24.06,-33.03c-3.13,-5.39 -6.13,-10.99 -7.4,-17.14c1.93,-2.58 3.76,-5.24 5.7,-7.81l3.5,-4.86c97.04,-134.17 193.75,-268.59 290.65,-402.86c10.32,-3.8 18.1,-12.03 27.92,-16.79z" fill="rgb(255, 255, 255)" id="svg_14" stroke="#000000" stroke-width="3"/>
   </g>
   <g id="layer1" transform="matrix(1.44587 0 0 1.44587 -1681.12 -600.221)">
    <g id="g7412">
     <g id="g6901" transform="matrix(1.3061 0 0 1.3061 1520.1 -353.67)">
      <g id="g6903">
       <path d="m105.51,823.99l-105,-60" fill="none" filter="url(#filter8114)" id="path6905" stroke="url(#radialGradient7500)" stroke-width="4"/>
       <g id="g6907">
        <g id="g6909">
         <path d="m-45.57,776.85l45,-10l-105,60l-37.43,4.4l-1.5,-2.25l98.93,-52.14l0,-0.01z" fill="url(#linearGradient7502)" id="path6911"/>
         <path d="m-104.49,823.99l105,-60" fill="url(#radialGradient7504)" filter="url(#filter8074)" id="path6913" stroke="url(#radialGradient7506)" stroke-width="4"/>
        </g>
        <g id="g6915">
         <path d="m34.43,776.47l-35,-9.62l105,60l35,0l1.08,-2.85l-106.07,-47.52l-0.01,-0.01z" fill="url(#linearGradient7508)" id="path6917"/>
         <g id="g6919">
          <g id="g6921">
           <path d="m0.51,763.99l-45,10l-100,55l40,-5l0.7,99.21l104.29,-49.2l104.03,48.61l0.97,-98.61l35,0l-105,-50.38l-35,-9.62l0.01,-0.01z" fill="url(#linearGradient7510)" id="path6923"/>
           <path d="m35.51,773.61l-35,-9.62l0.42,45.98l80.36,27.38l24.22,-13.36l35,0l-105,-50.37l0,-0.01z" fill="url(#radialGradient7512)" id="path6925"/>
          </g>
          <g id="g6927">
           <path d="m-144.49,828.99l40,-5l30.83,11.8l67.92,-36.47l6.25,-35.34l-45,10l-100,55l0,0.01z" fill="url(#radialGradient7514)" id="path6929"/>
           <path d="m0.51,763.99l-105,60l102.53,-51.52l2.89,37.5l3.14,13.01l-4.69,16.79l1.13,34.22l0.62,-33.37l6.43,-15.94l-1.41,-12.15l-1.15,-36.65l100.51,48.12l-105,-60l0,-0.01z" fill="url(#radialGradient7516)" filter="url(#filter7233)" id="path6931" mask="url(#mask7947)"/>
          </g>
         </g>
        </g>
       </g>
      </g>
      <path d="m0.51,763.99l-105,60l102.53,-51.52l2.89,37.5l3.14,13.01l-4.69,16.79l1.13,34.22l0.62,-33.37l6.43,-15.94l-1.41,-12.15l-1.15,-36.65l100.51,48.12l-105,-60l0,-0.01z" fill="url(#radialGradient7516)" filter="url(#filter7251)" id="path6933"/>
     </g>
     <g id="g7325">
      <g id="g7069">
       <path d="m1517.13,636.99l-68.75,42.1l-80.04,9.72l19.91,57.19l0,-18.19l137.16,65.28l5.25,-2.5l32.94,-20.16c-15.5,-44.48 -31,-88.95 -46.5,-133.44l0.03,0z" fill="#333333" id="path7071" stroke="#333333" stroke-linecap="round" stroke-linejoin="round" stroke-miterlimit="20" stroke-width="4.9"/>
       <path d="m1491.93,640.9l-42.69,40.72l-58.72,-5.41l-17.31,14.66c5.01,14.4 10.02,28.79 15.03,43.19l0,-6.25l126.5,60.19l21.31,-20.32l22.7,0.72c-14.7,-42.25 -29.5,-84.49 -44.2,-126.75l-22.62,-0.75l0,0z" fill="#e6e6e6" id="path7073"/>
       <path d="m1491.93,640.9l-42.69,40.72l-58.72,-5.41l-17.31,14.66c5.01,14.4 10.02,28.79 15.03,43.19l0,-6.25l133.19,63.4l37.3,-22.81c-14.7,-42.25 -29.5,-84.49 -44.2,-126.75l-22.63,-0.75l0.03,0z" fill="#e6e6e6" id="path7075"/>
       <path d="m1491.93,640.9l-42.69,40.72l-58.72,-5.41l-17.31,14.66c5.01,14.4 10.02,28.79 15.03,43.19l0,-6.25l126.5,60.19l21.31,-20.32l22.7,0.72c-14.7,-42.25 -29.5,-84.49 -44.2,-126.75l-22.62,-0.75l0,0z" fill="#e6e6e6" id="path7077"/>
       <path d="m1390.53,676.21l-17.32,14.66c5.02,14.39 10.02,28.79 15.03,43.19l0,-6.25l24.25,11.53l-21.96,-63.13z" fill="url(#linearGradient7520)" id="path7079"/>
       <path d="m1536.03,767.67l22.64,0.73c-14.71,-42.25 -29.42,-84.51 -44.13,-126.76l-22.65,-0.73l44.14,126.76l0,0z" fill="url(#linearGradient7522)" id="path7081"/>
       <path d="m1491.93,640.9s-15.87,7.67 -26.54,17.84c-10.67,10.18 -16.15,22.88 -16.15,22.88s-12.19,-6.53 -26.88,-7.88s-31.84,2.47 -31.84,2.47l21.97,63.16l97.03,46.16c10.67,-10.18 26.53,-17.85 26.53,-17.85l-44.1,-126.78l-0.02,0z" fill="#e6e6e6" id="path7083"/>
       <path d="m1491.93,640.9s-15.83,7.67 -26.5,17.84c-10.67,10.18 -16.16,22.88 -16.16,22.88l31.37,90.16l28.91,13.75c10.67,-10.18 26.53,-17.85 26.53,-17.85l-44.1,-126.79l-0.05,0.01z" fill="url(#linearGradient7524)" id="path7085"/>
       <path d="m1414.03,673.46c-12.13,0.23 -23.47,2.75 -23.47,2.75l21.97,63.16l68.12,32.4l-31.37,-90.15s-12.2,-6.53 -26.88,-7.88c-2.75,-0.25 -5.58,-0.33 -8.37,-0.28l0,0z" fill="url(#linearGradient7526)" id="path7087"/>
       <path d="m1536.03,767.68s-1.01,0.47 -2.66,1.34c-1.65,0.88 -3.95,2.16 -6.59,3.75c-1.33,0.8 -2.74,1.68 -4.19,2.63c-1.45,0.95 -2.95,1.96 -4.44,3.03c-1.49,1.08 -2.98,2.22 -4.44,3.41c-1.45,1.18 -2.88,2.41 -4.22,3.68l11.91,5.69l37.28,-22.81l-22.65,-0.72l0,0z" fill="#b3b3b3" id="path7089"/>
       <path d="m1480.93,635.59s-18.59,6.34 -26.5,17.84c-7.92,11.51 -5.16,28.19 -5.16,28.19l31.37,90.16l17.85,8.5c0.02,-0.03 0.04,-0.07 0.06,-0.1c7.92,-11.5 26.53,-17.84 26.53,-17.84l-44.15,-126.75l0,0z" fill="url(#linearGradient7528)" id="path7091"/>
       <g id="g7093">
        <path d="m1517.13,636.99l-68.75,42.1l-80.04,9.72l19.91,57.19l0,-18.19l137.16,65.28l5.25,-2.5l32.94,-20.16c-15.5,-44.48 -31,-88.95 -46.5,-133.44l0.03,0z" fill="#333333" id="path7095" stroke="#333333" stroke-linecap="round" stroke-linejoin="round" stroke-miterlimit="20" stroke-width="4.9"/>
        <path d="m1491.93,640.9l-42.69,40.72l-58.72,-5.41l-17.31,14.66c5.01,14.4 10.02,28.79 15.03,43.19l0,-6.25l126.5,60.19l21.31,-20.32l22.7,0.72c-14.7,-42.25 -29.5,-84.49 -44.2,-126.75l-22.62,-0.75l0,0z" fill="#e6e6e6" id="path7097"/>
        <path d="m1491.93,640.9l-42.69,40.72l-58.72,-5.41l-17.31,14.66c5.01,14.4 10.02,28.79 15.03,43.19l0,-6.25l133.19,63.4l37.3,-22.81c-14.7,-42.25 -29.5,-84.49 -44.2,-126.75l-22.63,-0.75l0.03,0z" fill="#e6e6e6" id="path7099"/>
        <path d="m1491.93,640.9l-42.69,40.72l-58.72,-5.41l-17.31,14.66c5.01,14.4 10.02,28.79 15.03,43.19l0,-6.25l126.5,60.19l21.31,-20.32l22.7,0.72c-14.7,-42.25 -29.5,-84.49 -44.2,-126.75l-22.62,-0.75l0,0z" fill="#e6e6e6" id="path7101"/>
        <path d="m1390.53,676.21l-17.32,14.66c5.02,14.39 10.02,28.79 15.03,43.19l0,-6.25l24.25,11.53l-21.96,-63.13z" fill="url(#linearGradient7520)" id="path7103"/>
        <path d="m1536.03,767.67l22.64,0.73c-14.71,-42.25 -29.42,-84.51 -44.13,-126.76l-22.65,-0.73l44.14,126.76l0,0z" fill="url(#linearGradient7522)" id="path7105"/>
        <path d="m1491.93,640.9s-15.87,7.67 -26.54,17.84c-10.67,10.18 -16.15,22.88 -16.15,22.88s-12.19,-6.53 -26.88,-7.88s-31.84,2.47 -31.84,2.47l21.97,63.16l97.03,46.16c10.67,-10.18 26.53,-17.85 26.53,-17.85l-44.1,-126.78l-0.02,0z" fill="#e6e6e6" id="path7107"/>
        <path d="m1491.93,640.9s-15.83,7.67 -26.5,17.84c-10.67,10.18 -16.16,22.88 -16.16,22.88l31.37,90.16l28.91,13.75c10.67,-10.18 26.53,-17.85 26.53,-17.85l-44.1,-126.79l-0.05,0.01z" fill="url(#linearGradient7524)" id="path7109"/>
        <path d="m1414.03,673.46c-12.13,0.23 -23.47,2.75 -23.47,2.75l21.97,63.16l68.12,32.4l-31.37,-90.15s-12.2,-6.53 -26.88,-7.88c-2.75,-0.25 -5.58,-0.33 -8.37,-0.28l0,0z" fill="url(#linearGradient7526)" id="path7111"/>
        <path d="m1536.03,767.68s-1.01,0.47 -2.66,1.34c-1.65,0.88 -3.95,2.16 -6.59,3.75c-1.33,0.8 -2.74,1.68 -4.19,2.63c-1.45,0.95 -2.95,1.96 -4.44,3.03c-1.49,1.08 -2.98,2.22 -4.44,3.41c-1.45,1.18 -2.88,2.41 -4.22,3.68l11.91,5.69l37.28,-22.81l-22.65,-0.72l0,0z" fill="#b3b3b3" id="path7113"/>
        <path d="m1480.93,635.59s-18.59,6.34 -26.5,17.84c-7.92,11.51 -5.16,28.19 -5.16,28.19l31.37,90.16l17.85,8.5c0.02,-0.03 0.04,-0.07 0.06,-0.1c7.92,-11.5 26.53,-17.84 26.53,-17.84l-44.15,-126.75l0,0z" fill="url(#linearGradient7528)" id="path7115"/>
       </g>
      </g>
      <g id="g7119">
       <path d="m1595.67,634.65c-3.33,0.03 -6.71,0.78 -9.91,2.34l-86.69,42.5c-11.38,5.58 -16.04,19.25 -10.47,30.63l39.16,79.91l128.5,-61.16l-39.91,-81.38c-3.9,-8.17 -12.1,-12.91 -20.6,-12.84l-0.08,0z" fill="#000000" filter="url(#filter3503)" id="path7121" opacity="0.35"/>
       <path d="m1596.67,632.49c-3.33,0.03 -6.71,0.78 -9.91,2.35l-86.69,42.5c-11.38,5.58 -16.08,19.24 -10.5,30.62l39.88,81.28l128.47,-61.15l-40.57,-82.75c-4,-8.18 -12.17,-12.91 -20.68,-12.85l0,0z" fill="url(#linearGradient7540)" id="path7123"/>
       <path d="m1612.27,667.28c-3.23,-0.05 -6.5,0.65 -9.57,2.15l-85.18,41.75c-10.91,5.35 -15.14,18.95 -9.47,30.5l23.1,46.78l125.2,-59.62l-23.6,-48.19c-4.07,-8.3 -12.1,-13.25 -20.35,-13.37l-0.13,0z" fill="url(#linearGradient7542)" id="path7125" opacity="0.23"/>
       <path d="m1623.77,723.56c-1.8,0.1 -3.6,0.56 -5.32,1.4c-6.85,3.36 -9.67,11.62 -6.31,18.47c0.91,1.86 2.18,3.44 3.69,4.66l22.5,-10.72c0,-2.05 -0.42,-4.13 -1.38,-6.09c-2.52,-5.14 -7.81,-8.02 -13.18,-7.72l0,0z" fill="#000000" filter="url(#filter3361)" id="path7127" opacity="0.5"/>
       <path d="m1612.77,683.87c-0.44,0.2 -0.88,0.38 -1.32,0.59c-30.22,14.82 -43.78,50.14 -32.12,81l18.19,-8.65c-7.03,-20.94 2.38,-44.36 22.75,-54.35c0.43,-0.21 0.87,-0.42 1.31,-0.62l-8.9,-17.96l0.09,-0.01z" fill="#000000" filter="url(#filter3361)" id="path7129" opacity="0.5"/>
       <path d="m1597.17,652.15c-47.41,23.39 -68.04,79.49 -48.04,127.69l15.47,-7.37c-13.45,-39.35 3.5,-83.43 40.97,-103.22l-8.5,-17.09l0.1,-0.01z" fill="#000000" filter="url(#filter3361)" id="path7131" opacity="0.5"/>
       <path d="m1623.37,722.65c-1.8,0.1 -3.57,0.57 -5.29,1.41c-6.85,3.35 -9.7,11.62 -6.34,18.47c1.09,2.22 2.71,4.04 4.63,5.34l21.53,-10.25c0.2,-2.41 -0.2,-4.92 -1.35,-7.25c-2.52,-5.14 -7.81,-8.02 -13.19,-7.72l0.01,0z" fill="url(#linearGradient7544)" id="path7133"/>
       <path d="m1612.27,682.93c-0.44,0.2 -0.88,0.41 -1.32,0.63c-30.54,14.97 -44.01,50.84 -31.68,81.93l18.12,-8.62c-7.66,-21.18 1.69,-45.2 22.38,-55.34c0.43,-0.22 0.87,-0.43 1.31,-0.63l-8.81,-17.97l0,0z" fill="url(#linearGradient7546)" id="path7135"/>
       <path d="m1596.77,651.21c-47.73,23.54 -68.34,80.25 -47.66,128.66l11.78,-5.62l3.63,-1.72c-14.08,-39.59 2.84,-84.23 40.62,-104.19l-8.37,-17.13l0,0z" fill="url(#linearGradient7546)" id="path7137"/>
       <path d="m1586.37,635.8c11.19,-5.49 24.62,-0.89 30.11,10.3l26.98,55.04c-27.83,-10.3 -66.19,-7.37 -102.67,10.52c-13.72,6.72 -25.92,14.95 -36.29,24.1l-13.74,-28.03c-5.49,-11.2 -0.89,-24.63 10.3,-30.12l85.31,-41.81l0,0z" fill="url(#linearGradient7550)" id="path7139" opacity="0.48"/>
      </g>
      <g id="g7141">
       <path d="m1470.07,700.15c-28.21,0 -53.03,14.51 -67.44,36.47l118.66,56.47l29.4,-14c-0.9,-43.73 -36.7,-78.94 -80.7,-78.94l0.08,0z" fill="#000000" fill-opacity="0.51" fill-rule="evenodd" filter="url(#filter6169)" id="path7143"/>
       <path d="m1468.97,698.4c-28.59,0 -53.68,14.92 -68,37.38l120.41,57.31l28.25,-13.44l0,-0.59c-0.1,-44.52 -36.2,-80.66 -80.7,-80.66l0.04,0z" fill="#000000" fill-rule="evenodd" id="path7145"/>
       <path d="m1468.97,749.71c-8.09,0 -15.41,3.27 -20.72,8.56l49.93,23.78c0.1,-0.98 0.16,-1.98 0.16,-3c0,-16.19 -13.18,-29.34 -29.37,-29.34l0,0z" fill="#333333" fill-rule="evenodd" id="path7147"/>
       <path d="m1468.97,698.4c-28.59,0 -53.68,14.92 -68,37.38l1.4,0.68c14.06,-21.93 38.63,-36.47 66.6,-36.47c43.65,0 79.09,35.41 79.09,79.07c0,0.45 -0.02,0.89 -0.03,1.34l1.59,-0.75l0,-0.59c-0.1,-44.52 -36.2,-80.66 -80.7,-80.66l0.05,0z" fill="#000000" fill-rule="evenodd" id="path7149"/>
       <path d="m1509.67,779.06c0,2.78 -0.25,5.5 -0.79,8.13l12.41,5.9l26.7,-12.69c0.01,-0.45 0.03,-0.89 0.03,-1.34l-38.31,0l-0.04,0z" fill="url(#radialGradient7552)" fill-rule="evenodd" id="path7151"/>
       <path d="m1468.97,699.96c-27.97,0 -52.54,14.57 -66.6,36.5l35.1,16.69c7.48,-9.09 18.82,-14.91 31.5,-14.91l0,-38.28l0,0z" fill="url(#radialGradient7554)" fill-rule="evenodd" id="path7153"/>
       <path d="m1468.97,749.06c-7.69,0 -15.37,2.93 -21.22,8.78c-0.05,0.05 -0.08,0.11 -0.13,0.16l1.25,0.59c11.21,-11.01 29.24,-10.94 40.38,0.19c6.28,6.28 9.05,14.76 8.28,22.97l1.28,0.59c0.95,-8.73 -1.94,-17.81 -8.63,-24.5c-5.85,-5.85 -13.53,-8.78 -21.22,-8.78l0.01,0z" fill="url(#radialGradient7556)" fill-rule="evenodd" id="path7155"/>
       <path d="m1468.97,755.65c-5.32,0 -10.59,1.82 -14.91,5.41l38.31,18.22c0.06,-6.07 -2.22,-12.16 -6.84,-16.78c-4.57,-4.57 -10.57,-6.85 -16.57,-6.85l0.01,0z" fill="url(#radialGradient7558)" fill-rule="evenodd" id="path7157"/>
       <path d="m1488.07,759.9c-3.08,-3.08 -6.72,-5.25 -10.59,-6.54l-0.54,1.62c3.63,1.2 7.03,3.25 9.91,6.13c3.51,3.52 5.78,7.8 6.8,12.31l1.67,-0.37c-1.09,-4.82 -3.51,-9.4 -7.25,-13.15l0,0z" fill="#ffffff" fill-rule="evenodd" id="path7159" opacity="0.74"/>
      </g>
     </g>
     <g id="g6935" transform="matrix(1.3061 0 0 1.3061 1521.3 -349.94)">
      <path d="m-104.49,823.99l0,96.88c0.45,4.05 0.79,3.65 3.28,5l95.36,54.49c3.78,1.99 7.79,2.84 12.51,0.14l92.28,-52.41c6.33,-3.54 6.69,-6.78 6.56,-10l0,-94.1l-105,50l-105,-50l0.01,0z" fill="url(#radialGradient7560)" id="path6937"/>
      <g id="g6939">
       <g id="g6941">
        <path d="m-26.99,923.03l25.5,-49l-62,18.5l36.5,30.5z" fill="url(#svg_2)" filter="url(#filter14465)" id="path6943" mask="url(#mask14451)"/>
        <g id="g6945" mask="url(#mask8359)">
         <g id="g6947">
          <path d="m-0.92,980.28l1.07,9.43l105.36,-65.34l-101.54,50.72l-3.82,-33.87l6.65,-18.05l-4.86,-16.41l-1.43,-32.77l-0.72,32.86l3.22,17.5l-6.79,16.43l2.86,39.5l0,0z" fill="url(#radialGradient7564)" filter="url(#filter7300)" id="path6949"/>
         </g>
        </g>
        <path d="m-0.49,888.99l3,37l66,-19l-69,-18z" fill="url(#linearGradient7566)" filter="url(#filter14443)" id="path6951" mask="url(#mask14451)"/>
       </g>
       <path d="m-106.49,823.99l0,96.88l0,0.12l0,0.1c0.23,2.09 0.39,3.37 1.31,4.53c0.91,1.15 1.84,1.39 2.97,2c0.01,0 0.02,-0.01 0.03,0l101.69,58.13l1,0.56l1,-0.56l98.4,-55.91c0.02,-0.01 0.02,-0.02 0.03,-0.03c3.36,-1.88 5.38,-3.82 6.47,-5.91c1.09,-2.07 1.16,-4.11 1.1,-5.81c0,-0.02 0,-0.04 0,-0.06l0,-94.03l-4,0l0,94.09l0,0.03l0,0.07c0.05,1.51 0.01,2.66 -0.63,3.87c-0.63,1.22 -1.95,2.63 -4.9,4.28l0,0.03l-0.03,0l-97.44,58.81l-100.72,-61.07l-0.04,0c-1.35,-0.73 -1.82,-0.97 -1.81,-0.96c0.01,0.01 -0.22,-0.54 -0.44,-2.5l0,-96.65l-4,0l0.01,-0.01z" fill="url(#linearGradient7568)" filter="url(#filter8178)" id="path6953" mask="url(#mask8351)"/>
      </g>
      <path d="m-45.57,931.85l45,-55l-105,-50l-45,45l105,60z" fill="#726038" id="path6955"/>
      <path d="m49.43,926.47l-50,-49.62l1.07,-2.86l103.93,-47.14l50,40l-105,59.62l0,0z" fill="#a38a50" id="path6957"/>
      <path d="m-44.49,928.99l45,-55l-105,-50l-46.25,45.25l106.25,59.75z" fill="url(#radialGradient7570)" id="path6959"/>
      <path d="m51.05,925.55c-0.89,0.51 -1.32,0.13 -0.95,-0.85l0.54,-0.31c-0.25,0.65 0.04,0.91 0.63,0.57c0.59,-0.33 1.26,-1.13 1.51,-1.77c0.37,-0.98 1.38,-2.17 2.26,-2.66c0.87,-0.49 1.28,-0.11 0.92,0.86c-0.25,0.64 0.03,0.9 0.61,0.57c0.58,-0.33 1.24,-1.11 1.48,-1.76c0.37,-0.96 1.36,-2.13 2.22,-2.62c0.86,-0.48 1.26,-0.09 0.9,0.86c-0.24,0.64 0.03,0.9 0.59,0.57c0.57,-0.32 1.23,-1.09 1.47,-1.73c0.36,-0.95 1.34,-2.11 2.18,-2.59c0.84,-0.47 1.23,-0.09 0.87,0.86c-0.23,0.63 0.03,0.89 0.58,0.57c0.56,-0.31 1.21,-1.08 1.44,-1.71c0.36,-0.94 1.32,-2.09 2.15,-2.55c0.83,-0.47 1.21,-0.08 0.85,0.86c-0.23,0.62 0.02,0.88 0.57,0.57c0.54,-0.31 1.18,-1.07 1.41,-1.69c0.36,-0.94 1.3,-2.07 2.12,-2.53c0.81,-0.45 1.18,-0.07 0.83,0.86c-0.24,0.62 0.01,0.88 0.55,0.57c0.54,-0.3 1.16,-1.05 1.39,-1.67c0.35,-0.92 1.28,-2.04 2.08,-2.49c0.8,-0.45 1.16,-0.06 0.81,0.86c-0.23,0.61 0.01,0.87 0.54,0.57c0.53,-0.3 1.14,-1.04 1.37,-1.65c0.35,-0.92 1.26,-2.02 2.05,-2.46c0.78,-0.44 1.13,-0.06 0.79,0.86c-0.23,0.61 0,0.86 0.52,0.57c0.52,-0.3 1.12,-1.03 1.35,-1.63c0.34,-0.91 1.25,-2 2.01,-2.43c0.77,-0.43 1.12,-0.05 0.77,0.85c-0.22,0.61 0.01,0.86 0.52,0.57c0.5,-0.28 1.1,-1 1.32,-1.61c0.34,-0.9 1.23,-1.97 1.99,-2.4c0.75,-0.42 1.09,-0.04 0.75,0.86c-0.22,0.6 0,0.85 0.5,0.57c0.5,-0.29 1.08,-1 1.31,-1.59c0.33,-0.9 1.21,-1.96 1.95,-2.38c0.74,-0.41 1.07,-0.03 0.73,0.86c-0.22,0.59 0,0.84 0.49,0.57c0.49,-0.28 1.07,-0.99 1.29,-1.58c0.33,-0.88 1.19,-1.93 1.92,-2.34c0.73,-0.41 1.05,-0.03 0.72,0.85c-0.22,0.59 -0.01,0.84 0.47,0.57c0.48,-0.27 1.05,-0.97 1.27,-1.55c0.33,-0.88 1.18,-1.92 1.9,-2.32c0.71,-0.4 1.02,-0.02 0.7,0.85c-0.22,0.58 -0.02,0.84 0.46,0.57c0.47,-0.27 1.03,-0.96 1.25,-1.54c0.33,-0.87 1.16,-1.89 1.87,-2.29c0.7,-0.39 1,-0.01 0.68,0.85c-0.22,0.58 -0.02,0.83 0.45,0.57c0.46,-0.27 1.02,-0.94 1.23,-1.52c0.33,-0.86 1.15,-1.88 1.84,-2.27c0.69,-0.38 0.99,0 0.67,0.86c-0.22,0.57 -0.02,0.82 0.44,0.56c0.45,-0.26 1,-0.93 1.21,-1.5c0.32,-0.86 1.14,-1.86 1.82,-2.24c0.67,-0.38 0.96,0 0.64,0.85c-0.21,0.56 -0.02,0.82 0.43,0.56c0.45,-0.25 0.99,-0.92 1.2,-1.48c0.32,-0.85 1.12,-1.84 1.79,-2.22c0.66,-0.37 0.95,0.01 0.63,0.85c-0.21,0.56 -0.02,0.81 0.42,0.56c0.44,-0.25 0.97,-0.9 1.18,-1.46c0.32,-0.84 1.11,-1.83 1.76,-2.2c0.66,-0.36 0.93,0.02 0.62,0.85c-0.21,0.56 -0.03,0.81 0.41,0.56c0.43,-0.24 0.95,-0.89 1.16,-1.45c0.32,-0.83 1.09,-1.8 1.74,-2.17c0.65,-0.36 0.91,0.02 0.6,0.85c-0.2,0.55 -0.03,0.8 0.4,0.56c0.43,-0.24 0.94,-0.88 1.15,-1.44c0.31,-0.82 1.08,-1.78 1.71,-2.14c0.64,-0.36 0.9,0.02 0.59,0.84c-0.2,0.55 -0.03,0.8 0.39,0.56c0.42,-0.24 0.93,-0.87 1.13,-1.42c0.31,-0.82 1.07,-1.77 1.69,-2.12c0.63,-0.35 0.88,0.03 0.58,0.84c-0.21,0.55 -0.04,0.8 0.38,0.56c0.41,-0.23 0.91,-0.86 1.11,-1.4c0.31,-0.81 1.06,-1.75 1.67,-2.1c0.61,-0.35 0.86,0.03 0.56,0.84c-0.2,0.54 -0.03,0.79 0.37,0.56c0.41,-0.23 0.9,-0.86 1.1,-1.39c0.31,-0.81 1.04,-1.74 1.65,-2.08c0.6,-0.34 0.85,0.04 0.55,0.84c-0.2,0.53 -0.04,0.78 0.36,0.55c0.4,-0.22 0.89,-0.84 1.09,-1.37c0.29,-0.8 1.02,-1.72 1.62,-2.06c0.59,-0.33 0.83,0.04 0.53,0.84c-0.2,0.53 -0.04,0.78 0.36,0.55c0.39,-0.22 0.87,-0.83 1.07,-1.36c0.3,-0.79 1.01,-1.7 1.6,-2.03c0.58,-0.33 0.82,0.04 0.52,0.83l-0.35,0.2c0.2,-0.52 0.04,-0.77 -0.35,-0.55c-0.39,0.22 -0.87,0.82 -1.07,1.35c-0.29,0.79 -1.01,1.71 -1.6,2.04c-0.6,0.34 -0.83,-0.03 -0.54,-0.83c0.2,-0.53 0.04,-0.78 -0.35,-0.56c-0.4,0.23 -0.88,0.84 -1.08,1.37c-0.3,0.8 -1.03,1.73 -1.63,2.07c-0.6,0.34 -0.85,-0.03 -0.55,-0.84c0.2,-0.53 0.04,-0.78 -0.36,-0.55c-0.41,0.22 -0.9,0.84 -1.1,1.38c-0.3,0.8 -1.04,1.74 -1.65,2.08c-0.61,0.35 -0.86,-0.02 -0.56,-0.83c0.2,-0.54 0.04,-0.79 -0.37,-0.56c-0.41,0.23 -0.91,0.86 -1.11,1.4c-0.31,0.81 -1.06,1.75 -1.68,2.1c-0.62,0.36 -0.87,-0.02 -0.57,-0.83c0.21,-0.55 0.03,-0.8 -0.38,-0.56c-0.42,0.23 -0.92,0.86 -1.13,1.41c-0.31,0.82 -1.06,1.77 -1.69,2.13c-0.64,0.36 -0.9,-0.02 -0.59,-0.84c0.21,-0.55 0.03,-0.8 -0.39,-0.56c-0.43,0.24 -0.94,0.88 -1.14,1.43c-0.31,0.82 -1.08,1.79 -1.73,2.15c-0.64,0.36 -0.91,-0.01 -0.6,-0.84c0.21,-0.55 0.03,-0.81 -0.4,-0.56c-0.43,0.24 -0.95,0.89 -1.16,1.44c-0.31,0.83 -1.09,1.81 -1.74,2.18c-0.65,0.37 -0.93,-0.01 -0.62,-0.85c0.21,-0.55 0.03,-0.81 -0.41,-0.56c-0.44,0.25 -0.96,0.9 -1.17,1.46c-0.32,0.84 -1.11,1.82 -1.77,2.2c-0.67,0.38 -0.95,0 -0.63,-0.84c0.21,-0.57 0.02,-0.82 -0.42,-0.57c-0.45,0.25 -0.98,0.91 -1.19,1.48c-0.32,0.85 -1.13,1.84 -1.8,2.22c-0.68,0.39 -0.97,0.01 -0.65,-0.84c0.22,-0.57 0.02,-0.82 -0.43,-0.57c-0.45,0.26 -0.99,0.93 -1.21,1.5c-0.32,0.85 -1.13,1.86 -1.82,2.25c-0.69,0.39 -0.98,0.01 -0.66,-0.85c0.22,-0.57 0.02,-0.83 -0.44,-0.57c-0.46,0.26 -1.01,0.94 -1.23,1.51c-0.32,0.86 -1.15,1.88 -1.85,2.28c-0.7,0.4 -1,0.02 -0.68,-0.85c0.22,-0.58 0.02,-0.83 -0.45,-0.57c-0.47,0.27 -1.03,0.95 -1.24,1.53c-0.33,0.87 -1.17,1.9 -1.88,2.3c-0.71,0.41 -1.02,0.03 -0.69,-0.85c0.21,-0.58 0.01,-0.83 -0.47,-0.56c-0.48,0.27 -1.04,0.96 -1.26,1.54c-0.33,0.88 -1.18,1.92 -1.91,2.33c-0.72,0.41 -1.04,0.03 -0.71,-0.85c0.22,-0.59 0.01,-0.84 -0.48,-0.57c-0.48,0.28 -1.06,0.98 -1.28,1.56c-0.33,0.89 -1.2,1.94 -1.93,2.36c-0.74,0.42 -1.07,0.04 -0.73,-0.85c0.22,-0.59 0,-0.85 -0.49,-0.57c-0.5,0.28 -1.08,0.99 -1.3,1.58c-0.34,0.89 -1.22,1.96 -1.96,2.39c-0.76,0.42 -1.09,0.04 -0.75,-0.86c0.22,-0.59 0,-0.85 -0.51,-0.57c-0.5,0.29 -1.09,1 -1.32,1.61c-0.34,0.9 -1.23,1.98 -1.99,2.41c-0.76,0.43 -1.11,0.05 -0.77,-0.85c0.23,-0.61 0,-0.86 -0.51,-0.58c-0.51,0.29 -1.12,1.02 -1.34,1.62c-0.35,0.91 -1.25,2.01 -2.03,2.45c-0.78,0.44 -1.13,0.06 -0.78,-0.86c0.23,-0.61 -0.01,-0.86 -0.53,-0.57c-0.52,0.3 -1.14,1.03 -1.37,1.64c-0.34,0.92 -1.26,2.03 -2.05,2.48c-0.79,0.45 -1.16,0.06 -0.81,-0.86c0.23,-0.61 -0.01,-0.87 -0.54,-0.57c-0.53,0.3 -1.15,1.04 -1.38,1.66c-0.35,0.93 -1.29,2.05 -2.09,2.5c-0.81,0.46 -1.18,0.08 -0.83,-0.85c0.23,-0.62 -0.01,-0.88 -0.56,-0.57c-0.54,0.3 -1.17,1.05 -1.4,1.68c-0.36,0.93 -1.3,2.07 -2.13,2.53c-0.82,0.47 -1.2,0.09 -0.85,-0.85c0.24,-0.63 -0.01,-0.89 -0.56,-0.58c-0.56,0.32 -1.2,1.08 -1.43,1.71c-0.36,0.94 -1.33,2.09 -2.16,2.56c-0.84,0.48 -1.23,0.1 -0.87,-0.85c0.24,-0.63 -0.02,-0.89 -0.59,-0.57c-0.56,0.31 -1.21,1.09 -1.45,1.72c-0.36,0.95 -1.34,2.12 -2.19,2.6c-0.86,0.49 -1.26,0.1 -0.9,-0.86c0.24,-0.63 -0.02,-0.89 -0.6,-0.57c-0.57,0.33 -1.23,1.11 -1.47,1.75c-0.37,0.96 -1.36,2.14 -2.23,2.63c-0.87,0.5 -1.29,0.12 -0.92,-0.85c0.24,-0.65 -0.03,-0.9 -0.62,-0.58c-0.58,0.33 -1.25,1.13 -1.5,1.77c-0.37,0.98 -1.38,2.17 -2.26,2.67" fill="#decca2" id="path6961"/>
      <path d="m50.51,923.61l-50,-49.62l105,-50l50,40l-105,59.62l0,0z" fill="url(#linearGradient7572)" id="path6963"/>
      <path d="m0.51,873.99l105,-50l-105,50z" fill="none" filter="url(#filter7863)" id="path6965" mask="url(#mask7935)" stroke="url(#radialGradient7574)" stroke-linecap="round" stroke-width="3"/>
      <path d="m0.51,873.99l-105,-50l105,50z" fill="none" filter="url(#filter7881)" id="path6967" mask="url(#mask7941)" stroke="url(#radialGradient7576)" stroke-width="4"/>
      <g id="g6969">
       <path d="m-44.49,928.99l45,-55l-105,-50l-45,45l105,60z" fill="url(#radialGradient7578)" id="path6971"/>
       <path d="m-46.44,930.51c0.88,0.5 1.31,0.11 0.94,-0.86l-0.54,-0.3c0.25,0.65 -0.04,0.9 -0.63,0.57c-0.59,-0.33 -1.26,-1.12 -1.51,-1.77c-0.37,-0.97 -1.38,-2.16 -2.25,-2.65c-0.88,-0.48 -1.29,-0.1 -0.93,0.87c0.25,0.64 -0.03,0.9 -0.61,0.57c-0.58,-0.32 -1.24,-1.11 -1.48,-1.75c-0.37,-0.96 -1.36,-2.13 -2.22,-2.61c-0.86,-0.48 -1.26,-0.09 -0.9,0.87c0.24,0.63 -0.03,0.89 -0.59,0.57c-0.57,-0.32 -1.23,-1.09 -1.47,-1.73c-0.36,-0.95 -1.33,-2.1 -2.18,-2.57c-0.84,-0.47 -1.23,-0.09 -0.87,0.86c0.24,0.63 -0.03,0.89 -0.58,0.57c-0.56,-0.31 -1.2,-1.07 -1.44,-1.7c-0.36,-0.94 -1.32,-2.08 -2.15,-2.55c-0.83,-0.46 -1.21,-0.07 -0.85,0.87c0.23,0.62 -0.02,0.88 -0.57,0.57c-0.54,-0.31 -1.18,-1.06 -1.41,-1.68c-0.36,-0.94 -1.3,-2.06 -2.12,-2.52c-0.81,-0.45 -1.18,-0.06 -0.83,0.87c0.24,0.62 -0.01,0.87 -0.55,0.57c-0.53,-0.3 -1.16,-1.05 -1.39,-1.66c-0.35,-0.93 -1.28,-2.04 -2.08,-2.48c-0.8,-0.45 -1.16,-0.06 -0.81,0.86c0.23,0.61 -0.01,0.87 -0.54,0.57c-0.52,-0.3 -1.14,-1.03 -1.37,-1.64c-0.34,-0.92 -1.26,-2.02 -2.05,-2.45c-0.78,-0.44 -1.13,-0.05 -0.79,0.86c0.23,0.61 0,0.86 -0.52,0.57c-0.52,-0.29 -1.12,-1.02 -1.35,-1.62c-0.34,-0.91 -1.25,-1.99 -2.01,-2.42c-0.77,-0.43 -1.12,-0.05 -0.77,0.86c0.22,0.6 -0.01,0.85 -0.52,0.57c-0.5,-0.29 -1.1,-1 -1.32,-1.6c-0.34,-0.9 -1.23,-1.98 -1.99,-2.4c-0.75,-0.42 -1.09,-0.03 -0.75,0.86c0.23,0.6 0,0.85 -0.5,0.57c-0.5,-0.28 -1.08,-0.99 -1.31,-1.58c-0.33,-0.89 -1.21,-1.95 -1.95,-2.37c-0.74,-0.41 -1.07,-0.02 -0.73,0.86c0.22,0.6 0,0.85 -0.49,0.57c-0.49,-0.27 -1.07,-0.97 -1.29,-1.56c-0.33,-0.88 -1.19,-1.93 -1.92,-2.34c-0.73,-0.4 -1.05,-0.02 -0.72,0.86c0.22,0.59 0.01,0.84 -0.47,0.57c-0.48,-0.27 -1.05,-0.96 -1.27,-1.55c-0.33,-0.87 -1.18,-1.91 -1.9,-2.31c-0.71,-0.4 -1.02,-0.01 -0.69,0.86c0.21,0.58 0.01,0.83 -0.47,0.57c-0.47,-0.27 -1.03,-0.95 -1.25,-1.53c-0.33,-0.87 -1.16,-1.89 -1.87,-2.28c-0.7,-0.4 -1,-0.01 -0.68,0.85c0.22,0.58 0.02,0.83 -0.45,0.57c-0.46,-0.26 -1.01,-0.94 -1.23,-1.51c-0.32,-0.86 -1.15,-1.88 -1.84,-2.26c-0.69,-0.39 -0.99,0 -0.67,0.85c0.22,0.57 0.02,0.83 -0.44,0.57c-0.45,-0.26 -1,-0.93 -1.21,-1.49c-0.32,-0.86 -1.13,-1.86 -1.81,-2.24c-0.68,-0.38 -0.97,0.01 -0.65,0.86c0.21,0.56 0.02,0.81 -0.43,0.56c-0.45,-0.25 -0.99,-0.91 -1.2,-1.48c-0.32,-0.84 -1.12,-1.83 -1.79,-2.2c-0.66,-0.38 -0.95,0.01 -0.63,0.85c0.21,0.56 0.02,0.81 -0.42,0.56c-0.44,-0.25 -0.97,-0.9 -1.18,-1.46c-0.32,-0.84 -1.1,-1.82 -1.76,-2.18c-0.66,-0.37 -0.93,0.01 -0.62,0.85c0.21,0.55 0.03,0.8 -0.41,0.56c-0.43,-0.24 -0.95,-0.89 -1.16,-1.45c-0.32,-0.83 -1.09,-1.79 -1.74,-2.15c-0.64,-0.36 -0.91,0.02 -0.6,0.84c0.21,0.55 0.03,0.81 -0.4,0.57c-0.43,-0.24 -0.94,-0.88 -1.15,-1.43c-0.31,-0.83 -1.08,-1.78 -1.71,-2.14c-0.64,-0.35 -0.9,0.03 -0.59,0.85c0.2,0.54 0.03,0.79 -0.39,0.56c-0.42,-0.24 -0.93,-0.87 -1.13,-1.42c-0.31,-0.81 -1.07,-1.76 -1.69,-2.11c-0.63,-0.35 -0.88,0.03 -0.58,0.84c0.21,0.55 0.04,0.8 -0.38,0.56c-0.41,-0.23 -0.91,-0.85 -1.11,-1.39c-0.31,-0.82 -1.06,-1.75 -1.67,-2.1c-0.61,-0.34 -0.86,0.04 -0.56,0.85c0.2,0.53 0.03,0.78 -0.37,0.56c-0.41,-0.23 -0.9,-0.85 -1.1,-1.39c-0.31,-0.8 -1.04,-1.73 -1.65,-2.07c-0.6,-0.33 -0.85,0.04 -0.55,0.84c0.21,0.54 0.04,0.79 -0.36,0.56c-0.4,-0.22 -0.88,-0.84 -1.08,-1.37c-0.3,-0.8 -1.03,-1.71 -1.63,-2.05c-0.59,-0.33 -0.83,0.05 -0.53,0.84c0.2,0.53 0.04,0.78 -0.36,0.56c-0.39,-0.22 -0.87,-0.83 -1.07,-1.36c-0.29,-0.79 -1.01,-1.7 -1.6,-2.02c-0.58,-0.33 -0.82,0.05 -0.52,0.83l0.35,0.2c-0.19,-0.52 -0.04,-0.77 0.35,-0.56c0.39,0.22 0.87,0.83 1.07,1.35c0.29,0.79 1.01,1.7 1.6,2.04c0.6,0.33 0.84,-0.04 0.54,-0.84c-0.2,-0.53 -0.04,-0.78 0.35,-0.56c0.4,0.23 0.88,0.84 1.08,1.37c0.3,0.8 1.03,1.72 1.63,2.05c0.6,0.34 0.85,-0.03 0.55,-0.83c-0.2,-0.54 -0.04,-0.79 0.36,-0.56c0.41,0.22 0.9,0.84 1.1,1.38c0.3,0.8 1.04,1.73 1.65,2.07c0.61,0.35 0.86,-0.03 0.56,-0.84c-0.2,-0.53 -0.04,-0.79 0.37,-0.56c0.41,0.23 0.91,0.86 1.11,1.4c0.31,0.81 1.06,1.75 1.68,2.09c0.62,0.35 0.88,-0.02 0.57,-0.84c-0.2,-0.54 -0.03,-0.79 0.38,-0.56c0.42,0.24 0.92,0.87 1.13,1.41c0.31,0.82 1.06,1.77 1.69,2.12c0.64,0.36 0.9,-0.02 0.59,-0.84c-0.2,-0.55 -0.03,-0.8 0.39,-0.56c0.43,0.23 0.94,0.87 1.15,1.42c0.31,0.82 1.07,1.78 1.72,2.14c0.64,0.37 0.91,-0.01 0.6,-0.84c-0.21,-0.55 -0.03,-0.8 0.4,-0.56c0.43,0.24 0.95,0.88 1.16,1.44c0.31,0.83 1.09,1.8 1.74,2.16c0.65,0.37 0.93,-0.01 0.62,-0.84c-0.21,-0.56 -0.03,-0.81 0.41,-0.57c0.44,0.25 0.96,0.9 1.17,1.46c0.32,0.83 1.11,1.82 1.77,2.19c0.67,0.37 0.95,-0.01 0.63,-0.85c-0.21,-0.56 -0.02,-0.81 0.42,-0.56c0.45,0.24 0.98,0.9 1.2,1.47c0.31,0.84 1.12,1.83 1.79,2.21c0.68,0.38 0.97,0 0.65,-0.85c-0.22,-0.56 -0.02,-0.82 0.43,-0.56c0.45,0.25 0.99,0.92 1.21,1.48c0.32,0.86 1.13,1.86 1.82,2.25c0.69,0.38 0.98,0 0.66,-0.85c-0.21,-0.58 -0.02,-0.83 0.44,-0.57c0.46,0.25 1.01,0.93 1.23,1.5c0.32,0.86 1.15,1.88 1.85,2.27c0.7,0.39 1,0.01 0.68,-0.85c-0.22,-0.58 -0.02,-0.83 0.45,-0.57c0.47,0.26 1.03,0.94 1.24,1.52c0.33,0.87 1.17,1.89 1.88,2.29c0.71,0.4 1.02,0.02 0.7,-0.85c-0.22,-0.58 -0.02,-0.84 0.46,-0.57c0.48,0.27 1.04,0.96 1.26,1.54c0.33,0.87 1.19,1.91 1.91,2.32c0.72,0.41 1.04,0.02 0.71,-0.85c-0.22,-0.59 -0.01,-0.85 0.48,-0.58c0.48,0.28 1.06,0.97 1.28,1.56c0.33,0.88 1.2,1.93 1.93,2.35c0.74,0.41 1.07,0.03 0.73,-0.86c-0.22,-0.59 0,-0.84 0.49,-0.57c0.5,0.28 1.08,0.98 1.3,1.58c0.34,0.89 1.22,1.95 1.97,2.37c0.75,0.43 1.08,0.04 0.74,-0.85c-0.22,-0.6 0,-0.86 0.51,-0.58c0.5,0.29 1.09,1 1.32,1.6c0.34,0.9 1.23,1.97 1.99,2.4c0.76,0.43 1.11,0.05 0.77,-0.85c-0.23,-0.61 0,-0.86 0.51,-0.58c0.51,0.29 1.12,1.01 1.34,1.62c0.35,0.9 1.25,1.99 2.03,2.43c0.78,0.44 1.13,0.05 0.79,-0.86c-0.23,-0.61 0,-0.86 0.52,-0.57c0.52,0.29 1.14,1.02 1.37,1.63c0.34,0.92 1.26,2.02 2.05,2.46c0.79,0.45 1.16,0.07 0.81,-0.85c-0.23,-0.62 0.01,-0.87 0.54,-0.58c0.53,0.3 1.15,1.04 1.39,1.66c0.34,0.92 1.28,2.04 2.08,2.49c0.81,0.45 1.18,0.07 0.83,-0.86c-0.23,-0.62 0.02,-0.88 0.56,-0.57c0.54,0.3 1.17,1.05 1.4,1.67c0.36,0.93 1.31,2.06 2.13,2.53c0.82,0.46 1.2,0.07 0.85,-0.86c-0.24,-0.63 0.01,-0.89 0.56,-0.58c0.56,0.31 1.2,1.07 1.44,1.7c0.35,0.94 1.32,2.08 2.15,2.55c0.84,0.48 1.23,0.09 0.87,-0.86c-0.24,-0.63 0.03,-0.89 0.59,-0.57c0.56,0.31 1.21,1.08 1.45,1.72c0.36,0.95 1.34,2.11 2.19,2.59c0.86,0.48 1.26,0.09 0.9,-0.86c-0.24,-0.64 0.02,-0.9 0.6,-0.58c0.57,0.32 1.23,1.1 1.47,1.74c0.37,0.96 1.36,2.13 2.23,2.62c0.87,0.49 1.29,0.11 0.92,-0.86c-0.24,-0.64 0.03,-0.9 0.62,-0.57c0.58,0.32 1.25,1.11 1.5,1.76c0.37,0.97 1.38,2.16 2.26,2.66" fill="url(#svg_1)" id="path6973"/>
      </g>
      <g id="g6975">
       <path d="m50.51,923.61l-50,-49.62l105,-50l50,40l-105,59.62l0,0z" fill="url(#radialGradient7582)" id="path6977" transform="translate(0 -0.882558)"/>
       <path d="m0.05,874.38l50.05,49.44l0.54,-0.3l-50.37,-49.73l-0.22,0.59" fill="#ceb476" id="path6979"/>
      </g>
     </g>
    </g>
   </g>
  </g>
 </g>
</svg>